<svg width="30" height="31" viewBox="0 0 30 31" fill="none" xmlns="http://www.w3.org/2000/svg">
<g id="Group 469">
<g id="Group 450">
<g id="Group 150">
<path id="Vector (Stroke)" fill-rule="evenodd" clip-rule="evenodd" d="M1 15.2813C1 22.9943 7.28698 29.2813 15 29.2813C22.8594 29.2813 29 23.0009 29 15.2813C29 7.56823 22.713 1.28125 15 1.28125C7.28698 1.28125 1 7.56823 1 15.2813ZM0 15.2813C0 23.5466 6.73469 30.2813 15 30.2813C23.4184 30.2813 30 23.5466 30 15.2813C30 7.01595 23.2653 0.28125 15 0.28125C6.73469 0.28125 0 7.01595 0 15.2813Z" fill="#56AEDB"/>
</g>
</g>
<path id="Union" fill-rule="evenodd" clip-rule="evenodd" d="M10.8105 19.6047C11.0839 19.8781 11.5271 19.8781 11.8004 19.6047L15.0667 16.3384L18.3332 19.6049C18.6066 19.8783 19.0498 19.8783 19.3232 19.6049C19.5966 19.3316 19.5966 18.8884 19.3232 18.615L16.0567 15.3485L19.323 12.0822C19.5964 11.8088 19.5964 11.3656 19.323 11.0922C19.0496 10.8189 18.6064 10.8189 18.333 11.0922L15.0667 14.3585L11.8006 11.0924C11.5273 10.8191 11.0841 10.8191 10.8107 11.0924C10.5373 11.3658 10.5373 11.809 10.8107 12.0824L14.0768 15.3485L10.8105 18.6148C10.5371 18.8882 10.5371 19.3314 10.8105 19.6047Z" fill="#56AEDB"/>
</g>
</svg>
