<svg width="31" height="35" viewBox="0 0 31 35" fill="none" xmlns="http://www.w3.org/2000/svg">
<path d="M5.06663 20.3922V29.822H0V15.7893C0.449459 16.5836 1.0215 17.3372 1.69569 18.0297C2.47202 18.824 3.30965 19.4757 4.229 19.9849C4.49459 20.1274 4.78061 20.27 5.06663 20.3922Z" fill="#303030"/>
<path d="M30.1546 24.8328C30.1546 27.6231 29.2353 29.9856 27.3966 31.8594C25.5579 33.7535 23.2697 34.6903 20.5321 34.6903H12.4623V21.289H17.6719V29.8023H20.5321C21.9009 29.8023 23.0246 29.3542 23.903 28.4377C24.7815 27.5212 25.2106 26.3196 25.2106 24.8124C25.2106 23.3053 24.7815 22.1037 23.903 21.1872C23.045 20.2707 21.9213 19.8226 20.5321 19.8226H9.60208C7.96768 19.8226 6.49672 19.4967 5.18921 18.8246C5.10749 18.7839 5.00534 18.7431 4.92362 18.682C4.12685 18.2543 3.4118 17.6841 2.73761 16.9916C2.26772 16.5232 1.87956 16.014 1.53225 15.4845C0.572039 13.9977 0.0612899 12.2869 0 10.352V9.57808C0.0817198 6.95077 1.00107 4.73079 2.75804 2.93851C4.59674 1.0444 6.88489 0.0871582 9.60208 0.0871582H17.6719V13.4885H12.4623V4.97519H9.60208C8.23327 4.97519 7.10962 5.42326 6.23114 6.33976C5.35265 7.25627 4.92362 8.45791 4.92362 9.96505C4.92362 11.4722 5.35265 12.6738 6.23114 13.5903C7.08919 14.5069 8.21284 14.9549 9.60208 14.9549H20.5117C23.2493 14.9549 25.5374 15.8918 27.3761 17.7859C29.2353 19.68 30.1546 22.0222 30.1546 24.8328Z" fill="#303030"/>
</svg>
