<svg width="63" height="8" viewBox="0 0 63 8" fill="none" xmlns="http://www.w3.org/2000/svg">
<path d="M26.1782 1.04834H27.8989V7.82907H26.1782V4.1805L24.5357 6.89729H24.3569L22.7368 4.19173V7.82907H21.0049V1.04834H22.7368L24.4463 3.94475L26.1782 1.04834Z" fill="#303030"/>
<path d="M4.62289 1.04785H2.51111L0.287598 7.82859H2.16473L2.45524 6.85189H4.7011L4.99161 7.82859H6.85757L4.62289 1.04785ZM2.89101 5.35878L3.56141 3.04615L4.24299 5.35878H2.89101Z" fill="#47A7E3"/>
<path d="M10.0866 1.04834H7.33789V5.55012H9.11447V2.72107H10.0866C10.5558 2.72107 10.9357 2.87824 11.2374 3.19258C11.5279 3.50692 11.6844 3.9223 11.6844 4.43871C11.6844 4.95512 11.5391 5.3705 11.2374 5.68484C10.9469 5.99918 10.5558 6.15634 10.0866 6.15634H9.91895H9.11447H7.33789V7.82907H10.0866C11.0139 7.82907 11.7961 7.50351 12.4218 6.85238C13.0475 6.20125 13.3604 5.39295 13.3604 4.43871C13.3604 3.47324 13.0475 2.66494 12.4218 2.02504C11.8073 1.37391 11.0251 1.04834 10.0866 1.04834Z" fill="#47A7E3"/>
<path d="M16.9249 1.04834H14.1763V2.72107H15.9528H16.6456H16.9361C17.4054 2.72107 17.7853 2.87824 18.087 3.19258C18.3775 3.50692 18.5339 3.9223 18.5339 4.43871C18.5339 4.95512 18.3887 5.3705 18.087 5.68484C17.7965 5.99918 17.4054 6.15634 16.9361 6.15634H15.964V3.3273H14.1874V7.82907H16.9361C17.8635 7.82907 18.6456 7.50351 19.2714 6.85238C19.8971 6.20125 20.2099 5.39295 20.2099 4.43871C20.2099 3.47324 19.8971 2.66494 19.2714 2.02504C18.6345 1.37391 17.8523 1.04834 16.9249 1.04834Z" fill="#47A7E3"/>
<path d="M52.2329 2.72107H53.9089V7.82907H55.6296V2.72107H57.3056V1.04834H52.2329V2.72107Z" fill="#303030"/>
<path d="M62.5357 4.97703C62.424 4.73005 62.2452 4.52798 62.0106 4.37081C61.7759 4.21364 61.5525 4.09014 61.3513 4.01156C61.1502 3.93298 60.8932 3.83194 60.558 3.74213C60.0999 3.60741 59.7982 3.48392 59.6418 3.38288C59.4854 3.28185 59.4072 3.15836 59.4072 3.00119C59.4072 2.86647 59.463 2.76543 59.5636 2.67562C59.6641 2.59704 59.8206 2.55213 60.0329 2.55213C60.5245 2.55213 60.8709 2.79911 61.0832 3.3043L62.5357 2.45109C62.3011 1.94591 61.9659 1.56421 61.5301 1.29478C61.0943 1.02535 60.5915 0.901855 60.0217 0.901855C59.3513 0.901855 58.7926 1.0927 58.3457 1.48563C57.8987 1.87855 57.6753 2.38374 57.6753 3.01241C57.6753 3.59618 57.8541 4.04524 58.2116 4.37081C58.5692 4.69637 59.0608 4.95458 59.6753 5.1342C60.1111 5.25769 60.3904 5.3475 60.5245 5.39241C60.8262 5.5159 60.9826 5.67306 60.9826 5.87514C60.9826 6.17825 60.7144 6.33542 60.1893 6.33542C59.5524 6.33542 59.1055 6.03231 58.8597 5.43731L57.3848 6.30174C57.5747 6.81816 57.8987 7.23353 58.368 7.53665C58.8373 7.83976 59.4295 7.99692 60.1446 7.99692C60.9156 7.99692 61.5413 7.80608 62.0106 7.43561C62.4799 7.06514 62.7145 6.5375 62.7145 5.87514C62.7033 5.5159 62.6474 5.22401 62.5357 4.97703Z" fill="#303030"/>
<path d="M32.7133 1.04834H30.6127L28.3892 7.82907H30.2663L30.5568 6.85238H32.8027L33.0932 7.82907H34.9591L32.7133 1.04834ZM30.9926 5.35927L31.663 3.04664L32.3446 5.35927H30.9926Z" fill="#303030"/>
<path d="M49.2387 5.2021H51.5628V3.60796H49.2387V2.66494H51.7974V1.04834H47.5068V7.82907H51.8533V6.20125H49.2387V5.2021Z" fill="#303030"/>
<path d="M46.9143 1.04834H44.9925L43.1489 3.89984V1.04834H41.417V7.82907H43.1489V4.79795L45.0819 7.82907H47.0149L44.7802 4.3489L46.9143 1.04834Z" fill="#303030"/>
<path d="M39.4166 5.32559C39.7742 5.12352 40.0535 4.85408 40.2547 4.51729C40.4558 4.1805 40.5675 3.81003 40.5675 3.39465C40.5675 2.72107 40.3329 2.15975 39.8636 1.7107C39.3943 1.27287 38.8245 1.04834 38.1317 1.04834H38.02H37.7518H37.1596H35.9976H35.4277V7.82907H37.1596V5.63993H37.7742L38.9474 7.82907H40.8022L39.4166 5.32559ZM38.6457 3.9672C38.5116 4.11314 38.3328 4.1805 38.1205 4.16928H37.1596V3.72022V2.64249H37.763H38.0311H38.1205C38.3328 2.64249 38.5116 2.70985 38.6457 2.85579C38.7798 3.00173 38.8468 3.18135 38.8468 3.40588C38.8468 3.64163 38.7798 3.82126 38.6457 3.9672Z" fill="#303030"/>
</svg>
