<svg width="93" height="35" viewBox="0 0 93 35" fill="none" xmlns="http://www.w3.org/2000/svg">
<g id="Group">
<path id="Vector" d="M11.6869 19.7402H15.4869V34.6284H11.6869V26.6038L8.07084 32.5917H7.68267L4.087 26.6242V34.6284H0.266602V19.7402H4.087L7.86654 26.0947L11.6869 19.7402Z" fill="#303030"/>
<path id="Vector_2" d="M10.2369 0.0456543H5.57889L0.655273 14.9338H4.80255L5.43588 12.7953H10.4004L11.0337 14.9338H15.1401L10.2369 0.0456543ZM6.41652 9.51621L7.90791 4.46525L9.41972 9.51621H6.41652Z" fill="#47A7E3"/>
<path id="Vector_3" d="M22.3312 0.0456543H16.2431V9.92355H20.1656V3.73205H22.3108C23.3527 3.73205 24.1903 4.07828 24.8441 4.77075C25.4979 5.46322 25.8247 6.35936 25.8247 7.4999C25.8247 8.64044 25.4979 9.53658 24.8441 10.2291C24.1903 10.9215 23.3527 11.2678 22.3108 11.2678H21.9226H20.1452H16.2227V14.9542H22.3108C24.3742 14.9542 26.0903 14.2413 27.4796 12.8156C28.8688 11.39 29.5634 9.61805 29.5634 7.52027C29.5634 5.40212 28.8688 3.63021 27.4796 2.2249C26.1108 0.758492 24.3946 0.0456543 22.3312 0.0456543Z" fill="#47A7E3"/>
<path id="Vector_4" d="M37.429 0.0456543H31.3408V3.73204H35.2634H36.7956H37.429C38.4709 3.73204 39.3085 4.07828 39.9623 4.77075C40.616 5.46322 40.9429 6.35936 40.9429 7.4999C40.9429 8.64044 40.616 9.53658 39.9623 10.2291C39.3085 10.9215 38.4709 11.2678 37.429 11.2678H35.2838V5.05589H31.3613V14.9338H37.4494C39.5128 14.9338 41.2289 14.2209 42.6182 12.7953C44.0074 11.3696 44.702 9.59768 44.702 7.4999C44.702 5.38175 44.0074 3.60984 42.6182 2.20453C41.2085 0.758492 39.4924 0.0456543 37.429 0.0456543Z" fill="#47A7E3"/>
<path id="Vector_5" d="M69.2998 23.4266H72.9976V34.6284H76.818V23.4266H80.4954V19.7402H69.2998V23.4266Z" fill="#303030"/>
<path id="Vector_6" d="M92.058 28.3759C91.7925 27.826 91.4043 27.378 90.8935 27.0317C90.3624 26.6855 89.8925 26.4207 89.443 26.2374C88.9936 26.0541 88.4215 25.8505 87.686 25.6468C86.685 25.3413 85.9903 25.0969 85.643 24.8525C85.2957 24.6285 85.1119 24.3433 85.1119 24.0174C85.1119 23.7323 85.2344 23.5083 85.4592 23.325C85.6839 23.1417 86.0312 23.0398 86.5011 23.0398C87.5839 23.0398 88.3602 23.5897 88.8301 24.6896L92.0376 22.8158C91.5269 21.716 90.7914 20.8606 89.8108 20.2903C88.8505 19.6997 87.7269 19.4146 86.4807 19.4146C85.0097 19.4146 83.7635 19.8423 82.7828 20.6977C81.8022 21.5531 81.2915 22.6529 81.2915 24.0378C81.2915 25.3209 81.6796 26.3189 82.4764 27.0317C83.2732 27.7446 84.356 28.2945 85.7248 28.7018C86.685 28.9666 87.3183 29.1702 87.6043 29.2721C88.2785 29.5369 88.6054 29.9035 88.6054 30.3312C88.6054 31.0033 88.0129 31.3291 86.8484 31.3291C85.4387 31.3291 84.4581 30.6774 83.9065 29.3535L80.6377 31.2477C81.0463 32.3882 81.7818 33.2843 82.8033 33.9564C83.8452 34.6286 85.1527 34.9544 86.7258 34.9544C88.442 34.9544 89.8107 34.5471 90.8527 33.712C91.8946 32.8974 92.4054 31.7568 92.4054 30.2904C92.4462 29.5572 92.3236 28.9055 92.058 28.3759Z" fill="#303030"/>
<path id="Vector_7" d="M26.151 19.7402H21.493L16.5693 34.6284H20.7166L21.3499 32.4899H26.3144L26.9478 34.6284H31.0746L26.151 19.7402ZM22.3306 29.2108L23.822 24.1598L25.3338 29.2108H22.3306Z" fill="#303030"/>
<path id="Vector_8" d="M62.6593 28.8646H67.8077V25.3615H62.6593V23.3044H68.3389V19.7402H58.8594V34.6284H68.441V31.0642H62.6593V28.8646Z" fill="#303030"/>
<path id="Vector_9" d="M57.5523 19.7402H53.2825L49.2169 25.9928V19.7402H45.3965V34.6284H49.2169V27.9684L53.5072 34.6284H57.7566L52.8126 26.9704L57.5523 19.7402Z" fill="#303030"/>
<path id="Vector_10" d="M40.983 29.1293C41.7593 28.6813 42.3926 28.0906 42.8421 27.3574C43.2916 26.6038 43.5163 25.7892 43.5163 24.893C43.5163 23.4063 43.0055 22.1843 41.9636 21.2066C40.9421 20.229 39.655 19.7402 38.1432 19.7402H37.898H37.3056H35.9776H33.4035H32.1572V34.6284H35.9776V29.8218H37.3464L39.941 34.6284H44.027L40.983 29.1293ZM39.2464 26.1354C38.94 26.4409 38.5722 26.6038 38.1023 26.5835H35.9776V25.6059V23.2433H37.3056H37.898H38.0819C38.5518 23.2433 38.94 23.4063 39.226 23.7118C39.5324 24.0173 39.6755 24.4246 39.6755 24.9338C39.6959 25.4226 39.5529 25.8299 39.2464 26.1354Z" fill="#303030"/>
</g>
</svg>
