<svg width="26" height="26" viewBox="0 0 26 26" fill="none" xmlns="http://www.w3.org/2000/svg">
<g id="Group 70">
<path id="Vector" d="M12.7502 25.5004C5.72458 25.5004 0 19.7758 0 12.7502C0 5.72458 5.72458 0 12.7502 0C19.7758 0 25.5004 5.72458 25.5004 12.7502C25.5004 19.7758 19.9059 25.5004 12.7502 25.5004ZM12.7502 1.82145C6.76541 1.82145 1.95156 6.6353 1.95156 12.6201C1.95156 18.6049 6.76541 23.4187 12.7502 23.4187C18.735 23.4187 23.5488 18.6049 23.5488 12.6201C23.5488 6.6353 18.735 1.82145 12.7502 1.82145Z" fill="#F68738"/>
<path id="Vector_2" d="M17.8247 7.67676H7.80666C7.15614 7.67676 6.50562 8.19717 6.50562 8.9778V16.5238C6.50562 17.1744 7.02603 17.8249 7.80666 17.8249H17.8247C18.4752 17.8249 19.1257 17.3045 19.1257 16.5238V8.9778C19.1257 8.19717 18.4752 7.67676 17.8247 7.67676ZM17.8247 16.3937H7.80666V10.1487L12.8807 13.2712L17.9548 10.1487V16.3937H17.8247ZM12.7506 12.1003L7.80666 8.84771H17.8247L12.7506 12.1003Z" fill="#F68738"/>
</g>
</svg>
