<svg width="26" height="26" viewBox="0 0 26 26" fill="none" xmlns="http://www.w3.org/2000/svg">
<g id="Group 69">
<path id="Vector" d="M13 0C5.82292 0 0 5.82291 0 13C0 20.1771 5.82292 26 13 26C20.1771 26 26 20.1771 26 13C26 5.82291 20.3125 0 13 0ZM13 24.2396C6.77083 24.2396 1.76042 19.2292 1.76042 13C1.76042 6.77083 6.77083 1.76042 13 1.76042C19.2292 1.76042 24.2396 6.77083 24.2396 13C24.2396 19.2292 19.2292 24.2396 13 24.2396Z" fill="#F68738"/>
<path id="Vector_2" d="M7.17676 8.80201C7.31217 10.6978 8.53092 12.4583 9.61426 13.9478C10.5622 15.302 11.7809 16.5208 12.9997 17.4687C13.8122 18.1458 14.6247 18.6874 15.5726 19.2291C16.1143 19.4999 16.5205 19.7708 17.1976 19.4999C18.1455 19.2291 20.4476 18.0103 20.1768 16.7916C20.0413 16.1145 19.2288 15.4374 18.6872 15.0312C18.0101 14.4895 17.0622 13.677 16.2497 14.4895C15.8434 14.8958 15.4372 15.8437 14.7601 15.8437C14.083 15.9791 13.4059 15.0312 12.9997 14.6249C12.3226 13.8124 11.6455 12.9999 10.9684 12.1874C10.4268 11.2395 11.1038 10.9687 11.7809 10.427C12.0518 10.1562 12.458 10.0208 12.5934 9.61451C12.8643 8.93742 12.1872 8.12492 11.7809 7.58326C11.3747 7.04159 10.9684 6.63534 10.5622 6.22909C10.0205 5.68742 9.34342 6.09367 8.80176 6.49992C8.12467 7.17701 7.58301 7.85409 7.17676 8.80201Z" fill="#F68738"/>
</g>
</svg>
